<svg width="64" height="50" fill="none" xmlns="http://www.w3.org/2000/svg"><path fill-rule="evenodd" clip-rule="evenodd" d="M16.234 0H0v4.09h5.991v18.637h4.252V4.091h5.99V0zM61.96 0H48.052v22.727h14.286v-4.09H52.205v-5.26h9.378V9.286h-9.377V4.09h9.754V0zM0 27.273h16.234v4.09h-5.991V50H5.99V31.364H0v-4.091zM52.267 50v-8.571h4.535c1.15 0 2.15-.195 3.002-.585.852-.39 1.554-.898 2.108-1.526a6.42 6.42 0 001.277-2.175 7.29 7.29 0 00.447-2.5v-.78a6.67 6.67 0 00-.447-2.402 5.767 5.767 0 00-1.277-2.11c-.554-.628-1.256-1.126-2.108-1.494-.852-.39-1.852-.584-3.002-.584h-8.75V50h4.215zm4.12-12.662h-4.12v-5.974h4.12c.937 0 1.671.26 2.204.779.553.52.83 1.19.83 2.013v.39c0 .822-.277 1.493-.83 2.012-.533.52-1.267.78-2.204.78zM38.961 0h4.546v50H20.779V0h3.896v8.442h14.286V0zm0 12.987H24.675v14.286h14.286V12.987zm0 18.182H24.675v14.286h14.286V31.169z" fill="#111118"/></svg>